<svg xmlns="http://www.w3.org/2000/svg" width="940" height="940" viewBox="0 0 940 940">
  <g id="Group_8" data-name="Group 8" transform="translate(221 -1268)">
    <rect id="Rectangle_10" data-name="Rectangle 10" width="940" height="940" rx="122" transform="translate(-221 1268)" fill="#8c1d40"/>
    <path id="favicon" d="M160-80q-33,0-56.5-23.5T80-160V-600q0-33,23.5-56.5T160-680H360V-800q0-33,23.5-56.5T440-880h80q33,0,56.5,23.5T600-800v120H800q33,0,56.5,23.5T880-600v440q0,33-23.5,56.5T800-80Zm0-80H800V-600H600q0,33-23.5,56.5T520-520H440q-33,0-56.5-23.5T360-600H160Zm80-80H480v-18a56.358,56.358,0,0,0-9.5-31.5Q461-304,444-312a206.359,206.359,0,0,0-40.5-13.5A202.507,202.507,0,0,0,360-330a202.507,202.507,0,0,0-43.5,4.5A206.359,206.359,0,0,0,276-312q-17,8-26.5,22.5A56.358,56.358,0,0,0,240-258Zm320-60H720v-60H560ZM360-360q25,0,42.5-17.5T420-420q0-25-17.5-42.5T360-480q-25,0-42.5,17.5T300-420q0,25,17.5,42.5T360-360Zm200-60H720v-60H560ZM440-600h80V-800H440ZM480-380Z" transform="translate(-231 2218)" fill="#fff"/>
  </g>
</svg>
